<svg width="150" height="150" viewBox="0 0 150 150" fill="none" xmlns="http://www.w3.org/2000/svg">
<g clip-path="url(#clip0_1198_791)">
<path d="M75 12.4937L75.2563 12.5062L76.5562 12.525C89.2721 12.9212 101.359 18.1496 110.355 27.1454C119.35 36.1412 124.579 48.2279 124.975 60.9437L124.994 62.4937L126.1 62.5313C130.685 62.8005 135.012 64.7431 138.259 67.9908C141.507 71.2384 143.45 75.5651 143.719 80.15L143.75 81.25C143.75 86.2228 141.775 90.9919 138.258 94.5083C134.742 98.0246 129.973 100 125 100L124.994 110.6L136.45 127.787C137.044 128.679 137.399 129.709 137.48 130.777C137.561 131.845 137.367 132.916 136.915 133.888C136.463 134.859 135.769 135.698 134.9 136.324C134.03 136.95 133.015 137.342 131.95 137.462L131.25 137.5H68.75C47.2188 137.513 29.2062 121.938 25.6187 101.1L25.4438 99.9875L25 99.9938C20.2174 99.994 15.6155 98.1667 12.1359 94.8857C8.65621 91.6047 6.56183 87.1181 6.28125 82.3438L6.25 81.25C6.25 76.2772 8.22544 71.5081 11.7417 67.9917C15.2581 64.4754 20.0272 62.5 25 62.5L25.025 60.9375C25.4309 47.9537 30.874 35.6375 40.2018 26.5967C49.5296 17.5559 62.0098 12.5001 75 12.5V12.4937ZM75 75C71.6848 75 68.5054 76.317 66.1612 78.6612C63.817 81.0054 62.5 84.1848 62.5 87.5C62.5 89.1576 63.1585 90.7473 64.3306 91.9194C65.5027 93.0915 67.0924 93.75 68.75 93.75H81.25C82.9076 93.75 84.4973 93.0915 85.6694 91.9194C86.8415 90.7473 87.5 89.1576 87.5 87.5C87.5 84.1848 86.183 81.0054 83.8388 78.6612C81.4946 76.317 78.3152 75 75 75ZM62.5625 50L61.7688 50.0437C60.1869 50.2319 58.7366 51.017 57.7142 52.2385C56.6917 53.4601 56.1743 55.026 56.2677 56.6163C56.361 58.2065 57.0581 59.7011 58.2164 60.7947C59.3748 61.8883 60.907 62.4982 62.5 62.5L63.2937 62.4562C64.8756 62.2681 66.3259 61.483 67.3483 60.2614C68.3708 59.0399 68.8882 57.474 68.7948 55.8837C68.7015 54.2935 68.0044 52.7989 66.8461 51.7053C65.6877 50.6117 64.1555 50.0018 62.5625 50ZM87.5625 50L86.7688 50.0437C85.1869 50.2319 83.7366 51.017 82.7142 52.2385C81.6917 53.4601 81.1743 55.026 81.2677 56.6163C81.361 58.2065 82.0581 59.7011 83.2164 60.7947C84.3748 61.8883 85.907 62.4982 87.5 62.5L88.2937 62.4562C89.8756 62.2681 91.3259 61.483 92.3483 60.2614C93.3708 59.0399 93.8882 57.474 93.7948 55.8837C93.7015 54.2935 93.0044 52.7989 91.8461 51.7053C90.6877 50.6117 89.1555 50.0018 87.5625 50Z" fill="white"/>
</g>
<defs>
<clipPath id="clip0_1198_791">
<rect width="150" height="150" fill="white"/>
</clipPath>
</defs>
</svg>
